<svg id="Lager_2" data-name="Lager 2" xmlns="http://www.w3.org/2000/svg" viewBox="0 0 730 439.92"><defs><style>.cls-1{fill:#393e41;}.cls-2{fill:#fdfffc;}</style></defs><title>logolego</title><path id="Bottom" class="cls-1" d="M83.26,574.16,231.34,459.74a7.42,7.42,0,0,1,10.17,1L279,504.54a7.42,7.42,0,0,0,10.05,1.13L518.7,335.29a7.42,7.42,0,0,1,10.05,1.13l37.54,43.8a7.42,7.42,0,0,0,10.12,1.08L753.09,247A7.42,7.42,0,0,1,765,252.94V580a7.42,7.42,0,0,1-7.42,7.42H87.8A7.42,7.42,0,0,1,83.26,574.16Z" transform="translate(-35 -147.53)"/><path id="Top" class="cls-2" d="M46.69,547.72l192.5-142.59a7.33,7.33,0,0,1,9.93,1.12l37.71,44a7.33,7.33,0,0,0,9.93,1.12L526.53,280.88a7.33,7.33,0,0,1,9.93,1.12l37.74,44a7.33,7.33,0,0,0,9.88,1.16l147.15-107a7.33,7.33,0,0,0-4.31-13.26H679.14a7.33,7.33,0,0,1-7.33-7.33v-39.7a7.33,7.33,0,0,0-7.33-7.33s-55.47-5-94.47-5-92.78,5-92.78,5a7.33,7.33,0,0,0-7.33,7.33v47.47a7.33,7.33,0,0,1-7.33,7.33H337.44a7.33,7.33,0,0,1-7.33-7.33V159.88a7.33,7.33,0,0,0-7.33-7.33,881.66,881.66,0,0,0-96.79-5c-50,.45-90.46,5-90.46,5a7.33,7.33,0,0,0-7.33,7.33v47.47a7.33,7.33,0,0,1-7.33,7.33H47.43A12.43,12.43,0,0,0,35,227.11V541.83A7.33,7.33,0,0,0,46.69,547.72Z" transform="translate(-35 -147.53)"/></svg>